<svg xmlns="http://www.w3.org/2000/svg" version="1.1" xmlns:xlink="http://www.w3.org/1999/xlink" xmlns:svgjs="http://svgjs.dev/svgjs" width="2000" height="691" viewBox="0 0 2000 691"><g transform="matrix(1,0,0,1,-1.2121212121212466,0.5752721182066125)"><svg viewBox="0 0 396 137" data-background-color="#ffffff" preserveAspectRatio="xMidYMid meet" height="691" width="2000" xmlns="http://www.w3.org/2000/svg" xmlns:xlink="http://www.w3.org/1999/xlink"><g id="tight-bounds" transform="matrix(1,0,0,1,0.2400000000000091,-0.11405539825514666)"><svg viewBox="0 0 395.52 137.22805597201068" height="137.22805597201068" width="395.52"><g><svg viewBox="0 0 655.8147944880735 227.53890909506987" height="137.22805597201068" width="395.52"><g transform="matrix(1,0,0,1,260.29479448807353,59.77931731247644)"><svg viewBox="0 0 395.52 107.980274470117" height="107.980274470117" width="395.52"><g id="textblocktransform"><svg viewBox="0 0 395.52 107.980274470117" height="107.980274470117" width="395.52" id="textblock"><g><rect width="47.4624" height="6.2563741100637005" y="93.73878199800306" fill="#000000" data-fill-palette-color="tertiary"></rect><rect width="47.4624" height="6.2563741100637005" y="93.73878199800306" x="348.0576" fill="#000000" data-fill-palette-color="tertiary"></rect></g><g><svg viewBox="0 0 395.52 69.37572093945099" height="69.37572093945099" width="395.52"><g transform="matrix(1,0,0,1,0,0)"><svg width="395.52" viewBox="2.32 -34.55 246.34 43.22" height="69.37572093945099" data-palette-color="#000000"><path d="M9.55-7.96L9.55-7.96Q7.37-7.3 7.37-6.52L7.37-6.52Q7.37-5.76 8.64-5.47L8.64-5.47Q11.11-4.88 15.43-4.77 19.75-4.66 21.94-4.11 24.12-3.56 25.42-2.73L25.42-2.73Q27.76-1.2 27.76 1.34L27.76 1.34Q27.76 4.52 24.61 6.49L24.61 6.49Q21.12 8.67 14.77 8.67L14.77 8.67Q8.2 8.67 3.93 6.71L3.93 6.71Q2.39 5.96 2.39 5L2.39 5Q2.39 4.59 2.7 4.35 3 4.1 3.34 4.1L3.34 4.1Q3.76 4.1 4.3 4.42L4.3 4.42Q5.54 5.13 6.6 5.6 7.67 6.08 9.94 6.52 12.21 6.96 14.32 6.96 16.43 6.96 17.76 6.77 19.09 6.59 19.97 6.35L19.97 6.35Q21.7 5.83 21.7 5.2L21.7 5.2Q21.7 4.61 21.36 4.35 21.02 4.08 20.47 3.87 19.92 3.66 18.95 3.49L18.95 3.49Q16.94 3.15 13.5 2.98 10.06 2.81 8.06 2.31 6.05 1.81 4.79 1.03L4.79 1.03Q2.32-0.46 2.32-3L2.32-3Q2.32-6.67 7.28-8.94L7.28-8.94Q5-10.18 3.66-12.22 2.32-14.26 2.32-16.64 2.32-19.02 3.21-20.76 4.1-22.51 5.71-23.78L5.71-23.78Q9.11-26.51 14.48-26.51L14.48-26.51Q16.87-26.51 19.29-25.78L19.29-25.78Q22.75-29.13 25.71-29.13L25.71-29.13Q26.95-29.13 27.55-28.71 28.15-28.3 28.15-27.66L28.15-27.66Q28.15-27.03 27.73-26.75 27.32-26.46 26.95-26.46L26.95-26.46Q26.29-26.46 25.83-26.61L25.83-26.61Q25.15-26.86 24.44-26.86L24.44-26.86Q23.12-26.86 21.12-25.02L21.12-25.02Q25.1-23.07 26.32-19.41L26.32-19.41Q26.71-18.19 26.71-16.42 26.71-14.65 25.68-12.89 24.66-11.13 22.95-9.86L22.95-9.86Q19.38-7.23 14.58-7.23L14.58-7.23Q12.04-7.18 9.55-7.96ZM14.67-24.78L14.67-9.01Q18.63-9.06 21.48-10.94L21.48-10.94Q24.78-13.09 24.78-16.75 24.78-20.41 21.53-22.66L21.53-22.66Q18.55-24.71 14.67-24.78L14.67-24.78ZM31.13-13.18L31.13-13.18Q31.13-16.11 32.19-18.52 33.25-20.92 35.1-22.71L35.1-22.71Q39.11-26.51 45.16-26.51L45.16-26.51Q51.34-26.51 55.22-22.56L55.22-22.56Q58.93-18.82 58.93-13.11L58.93-13.11Q58.93-7.37 55.12-3.52L55.12-3.52Q51.19 0.46 45.07 0.46L45.07 0.46Q39.08 0.46 35.15-3.32L35.15-3.32Q31.13-7.23 31.13-13.18ZM44.38-24.71L44.38-1.37Q44.58-1.34 44.77-1.34L44.77-1.34 45.11-1.34Q50.05-1.34 53.39-4.39L53.39-4.39Q56.96-7.69 56.96-13.04L56.96-13.04Q56.96-18.26 53.61-21.51L53.61-21.51Q50.31-24.73 45.09-24.73L45.09-24.73 44.72-24.73Q44.55-24.73 44.38-24.71L44.38-24.71ZM67.35-14.92L67.35-14.92 64.67-14.77Q64.08-14.77 63.7-15.06 63.33-15.36 63.33-15.82L63.33-15.82Q63.33-16.89 64.67-16.89L64.67-16.89Q64.67-16.89 68.16-16.67L68.16-16.67 70.72-16.67 74.6-16.89Q76-16.89 76-15.83 76-14.77 74.51-14.77L74.51-14.77Q74.09-14.77 73.73-14.79L73.73-14.79 72.97-14.84Q72.31-14.92 71.02-14.92L71.02-14.92Q69.18-14.92 67.35-14.92ZM111.44-19.34L111.44-19.34Q111.49-18.75 111.49-18.16L111.49-18.16 111.49 0 101.02 0 101.02-23.68Q100.75-23.8 100.38-23.8L100.38-23.8 99.6-23.8Q97.7-23.8 95.16-21.19L95.16-21.19Q94.38-20.39 93.67-19.41L93.67-19.41 93.67 0 83.17 0 83.17-26.07 93.67-26.07 93.67-22.14Q97.8-26.51 102.9-26.51L102.9-26.51Q109.49-26.51 111.03-21.63L111.03-21.63Q113.13-24.05 115.65-25.28 118.18-26.51 120.74-26.51L120.74-26.51Q125.11-26.51 127.21-24.44 129.31-22.36 129.31-18.16L129.31-18.16 129.31 0 118.84 0 118.84-23.71Q118.62-23.8 117.74-23.8 116.86-23.8 116.12-23.47 115.37-23.14 114.59-22.56L114.59-22.56Q112.88-21.31 111.44-19.34ZM159.95-5.93L159.95-5.93Q160.9-5.93 160.9-5.05L160.9-5.05Q160.9-4.39 160.05-3.49L160.05-3.49Q156.19 0.46 149.48 0.46L149.48 0.46Q143.45 0.46 139.32-3.17L139.32-3.17Q135.05-6.96 135.05-12.74L135.05-12.74Q135.05-18.65 138.91-22.46L138.91-22.46Q142.98-26.51 149.75-26.51L149.75-26.51Q155.17-26.51 158.85-23.22L158.85-23.22Q162.83-19.68 162.83-13.92L162.83-13.92Q162.83-13.09 162.78-12.16L162.78-12.16 146.67-12.16 146.67-1.68Q148.33-1.34 150.41-1.34L150.41-1.34Q154.8-1.34 157.9-4.25L157.9-4.25Q158.53-4.88 158.8-5.25L158.8-5.25Q159.37-5.93 159.95-5.93ZM153.43-13.94L153.43-24.27Q151.85-24.73 149.84-24.73 147.84-24.73 146.67-24.46L146.67-24.46 146.67-13.94 153.43-13.94ZM169.03 0L169.03-26.07 179.53-26.07 179.53-18.41Q181.21-22.58 183.15-24.55 185.09-26.51 187.05-26.51L187.05-26.51Q188.15-26.51 188.79-25.94 189.44-25.37 189.44-24.66 189.44-23.95 189.25-23.54 189.05-23.12 188.73-22.83L188.73-22.83Q188.07-22.22 187.49-22.22L187.49-22.22Q186.56-22.22 186.12-22.41L186.12-22.41Q185.36-22.75 184.78-22.75 184.19-22.75 183.29-21.81 182.38-20.87 181.55-19.21L181.55-19.21Q179.53-15.16 179.53-10.42L179.53-10.42 179.53 0 169.03 0ZM202.35-24.54L202.35-1.56Q203.5-1.34 204.66-1.34 205.82-1.34 206.91-1.53 207.99-1.71 208.97-2.05L208.97-2.05Q211.04-2.78 212.31-3.91L212.31-3.91Q213.22-4.69 213.63-4.69L213.63-4.69Q214.56-4.69 214.56-3.86 214.56-3.03 213.05-1.88L213.05-1.88Q209.53 0.46 204.6 0.46L204.6 0.46Q198.18 0.46 194.22-3.39L194.22-3.39Q190.34-7.2 190.34-13.28L190.34-13.28Q190.34-19.04 194.47-22.8L194.47-22.8Q198.57-26.51 204.77-26.51L204.77-26.51Q208.31-26.51 211.58-25.05L211.58-25.05Q214.07-23.97 214.07-22.83L214.07-22.83Q214.07-22.34 213.79-22.08 213.51-21.83 213.17-21.83L213.17-21.83Q212.66-21.83 211.85-22.39L211.85-22.39Q210.26-23.9 207.14-24.51L207.14-24.51Q206.02-24.73 204.67-24.73 203.33-24.73 202.35-24.54L202.35-24.54ZM240.07-26.51L240.07-26.51Q248.66-26.51 248.66-18.16L248.66-18.16 248.66 0 238.17 0 238.17-23.75Q237.73-24.05 237.01-24.05 236.29-24.05 235.5-23.71 234.72-23.36 233.87-22.75L233.87-22.75Q232.04-21.41 230.62-19.38L230.62-19.38 230.62 0 220.12 0 220.12-34.55 230.62-34.55 230.62-21.95Q234.8-26.51 240.07-26.51Z" opacity="1" transform="matrix(1,0,0,1,0,0)" fill="#000000" class="wordmark-text-0" data-fill-palette-color="primary" id="text-0"></path></svg></g></svg></g><g transform="matrix(1,0,0,1,47.4624,85.75366363595282)"><svg viewBox="0 0 300.5952 22.226610834164177" height="22.226610834164177" width="300.5952"><g transform="matrix(1,0,0,1,8,0)"><svg width="284.5952" viewBox="4.7 -37 601.74 47" height="22.226610834164177" data-palette-color="#000000"><path d="M6.25 0L6.25 0Q5.55 0 5.13-0.45 4.7-0.9 4.7-1.5L4.7-1.5 4.7-33.5Q4.7-34.1 5.15-34.55 5.6-35 6.2-35L6.2-35 24.4-35Q25.05-35 25.48-34.58 25.9-34.15 25.9-33.5L25.9-33.5Q25.9-32.9 25.48-32.48 25.05-32.05 24.4-32.05L24.4-32.05 7.55-32.05 7.75-32.35 7.75-19.05 7.5-19.5 22.15-19.5Q22.8-19.5 23.23-19.07 23.65-18.65 23.65-18.05L23.65-18.05Q23.65-17.4 23.23-17 22.8-16.6 22.15-16.6L22.15-16.6 7.4-16.6 7.75-17 7.75-1.5Q7.75-0.9 7.33-0.45 6.9 0 6.25 0ZM52-25.55L52-25.55Q52.65-25.55 53.07-25.1 53.5-24.65 53.5-24L53.5-24 53.5-1.5Q53.5-0.9 53.05-0.45 52.6 0 52 0L52 0Q51.3 0 50.9-0.45 50.5-0.9 50.5-1.5L50.5-1.5 50.5-7.45 51.35-7.85Q51.35-6.45 50.57-5 49.8-3.55 48.45-2.3 47.1-1.05 45.27-0.28 43.45 0.5 41.3 0.5L41.3 0.5Q37.95 0.5 35.27-1.25 32.6-3 31.07-6.05 29.55-9.1 29.55-12.9L29.55-12.9Q29.55-16.8 31.1-19.78 32.65-22.75 35.3-24.45 37.95-26.15 41.25-26.15L41.25-26.15Q43.4-26.15 45.27-25.4 47.15-24.65 48.55-23.35 49.95-22.05 50.75-20.38 51.55-18.7 51.55-16.9L51.55-16.9 50.5-17.65 50.5-24Q50.5-24.65 50.9-25.1 51.3-25.55 52-25.55ZM41.6-2.3L41.6-2.3Q44.25-2.3 46.3-3.68 48.35-5.05 49.52-7.48 50.7-9.9 50.7-12.9L50.7-12.9Q50.7-15.85 49.52-18.2 48.35-20.55 46.3-21.95 44.25-23.35 41.6-23.35L41.6-23.35Q39-23.35 36.92-22 34.85-20.65 33.67-18.3 32.5-15.95 32.5-12.9L32.5-12.9Q32.5-9.9 33.65-7.48 34.8-5.05 36.87-3.68 38.95-2.3 41.6-2.3ZM59.9-4.05L59.9-4.05Q59.5-4.65 59.52-5.23 59.55-5.8 60.15-6.15L60.15-6.15Q60.55-6.5 61.07-6.45 61.6-6.4 62.05-5.95L62.05-5.95Q63.4-4.2 65.32-3.13 67.25-2.05 69.9-2.05L69.9-2.05Q71.3-2.05 72.67-2.53 74.05-3 74.95-3.98 75.84-4.95 75.84-6.45L75.84-6.45Q75.84-8 74.95-8.95 74.05-9.9 72.62-10.45 71.2-11 69.59-11.4L69.59-11.4Q67.9-11.85 66.3-12.43 64.7-13 63.47-13.88 62.25-14.75 61.5-16 60.75-17.25 60.75-19.05L60.75-19.05Q60.75-21.15 61.9-22.75 63.05-24.35 65.02-25.25 67-26.15 69.5-26.15L69.5-26.15Q70.75-26.15 72.2-25.83 73.65-25.5 75.05-24.75 76.45-24 77.55-22.7L77.55-22.7Q78-22.25 78-21.68 78-21.1 77.5-20.65L77.5-20.65Q77.09-20.35 76.57-20.35 76.05-20.35 75.7-20.75L75.7-20.75Q74.5-22.1 72.84-22.8 71.2-23.5 69.3-23.5L69.3-23.5Q67.84-23.5 66.57-23.03 65.3-22.55 64.45-21.6 63.6-20.65 63.6-19.1L63.6-19.1Q63.7-17.65 64.62-16.75 65.55-15.85 67.07-15.25 68.59-14.65 70.5-14.15L70.5-14.15Q72.09-13.75 73.57-13.2 75.05-12.65 76.17-11.83 77.3-11 77.97-9.75 78.65-8.5 78.65-6.6L78.65-6.6Q78.65-4.4 77.42-2.8 76.2-1.2 74.15-0.35 72.09 0.5 69.59 0.5L69.59 0.5Q66.9 0.5 64.37-0.55 61.85-1.6 59.9-4.05ZM96.44-25.75L96.44-25.75Q99.59-25.75 101.54-24.4 103.49-23.05 104.42-20.75 105.34-18.45 105.34-15.65L105.34-15.65 105.34-1.5Q105.34-0.9 104.89-0.45 104.44 0 103.84 0L103.84 0Q103.14 0 102.74-0.45 102.34-0.9 102.34-1.5L102.34-1.5 102.34-15.65Q102.34-17.7 101.72-19.35 101.09-21 99.69-21.98 98.29-22.95 95.94-22.95L95.94-22.95Q93.84-22.95 91.97-21.98 90.09-21 88.94-19.35 87.79-17.7 87.79-15.65L87.79-15.65 87.79-1.5Q87.79-0.9 87.34-0.45 86.89 0 86.29 0L86.29 0Q85.59 0 85.19-0.45 84.79-0.9 84.79-1.5L84.79-1.5 84.79-35.5Q84.79-36.1 85.22-36.55 85.64-37 86.29-37L86.29-37Q86.94-37 87.37-36.55 87.79-36.1 87.79-35.5L87.79-35.5 87.79-19.3 86.64-17.55Q86.74-19.1 87.62-20.58 88.49-22.05 89.89-23.23 91.29-24.4 92.99-25.08 94.69-25.75 96.44-25.75ZM116.09-24.5L116.09-1.5Q116.09-0.9 115.64-0.45 115.19 0 114.59 0L114.59 0Q113.94 0 113.52-0.45 113.09-0.9 113.09-1.5L113.09-1.5 113.09-24.5Q113.09-25.1 113.52-25.55 113.94-26 114.59-26L114.59-26Q115.24-26 115.67-25.55 116.09-25.1 116.09-24.5L116.09-24.5ZM114.59-29.35L114.59-29.35Q113.54-29.35 113.02-29.83 112.49-30.3 112.49-31.2L112.49-31.2 112.49-31.7Q112.49-32.6 113.07-33.08 113.64-33.55 114.64-33.55L114.64-33.55Q115.59-33.55 116.12-33.08 116.64-32.6 116.64-31.7L116.64-31.7 116.64-31.2Q116.64-30.3 116.12-29.83 115.59-29.35 114.59-29.35ZM147.49-12.8L147.49-12.8Q147.49-9 145.81-5.98 144.14-2.95 141.29-1.23 138.44 0.5 134.84 0.5L134.84 0.5Q131.29 0.5 128.41-1.23 125.54-2.95 123.86-5.98 122.19-9 122.19-12.8L122.19-12.8Q122.19-16.65 123.86-19.65 125.54-22.65 128.41-24.4 131.29-26.15 134.84-26.15L134.84-26.15Q138.44-26.15 141.29-24.4 144.14-22.65 145.81-19.65 147.49-16.65 147.49-12.8ZM144.49-12.8L144.49-12.8Q144.49-15.85 143.24-18.23 141.99-20.6 139.81-21.98 137.64-23.35 134.84-23.35L134.84-23.35Q132.09-23.35 129.91-21.98 127.74-20.6 126.46-18.23 125.19-15.85 125.19-12.8L125.19-12.8Q125.19-9.75 126.46-7.4 127.74-5.05 129.91-3.68 132.09-2.3 134.84-2.3L134.84-2.3Q137.64-2.3 139.81-3.68 141.99-5.05 143.24-7.4 144.49-9.75 144.49-12.8ZM165.69-26.15L165.69-26.15Q168.99-26.15 170.96-24.83 172.94-23.5 173.81-21.23 174.69-18.95 174.69-16.2L174.69-16.2 174.69-1.5Q174.69-0.9 174.24-0.45 173.78 0 173.19 0L173.19 0Q172.49 0 172.09-0.45 171.69-0.9 171.69-1.5L171.69-1.5 171.69-16.05Q171.69-18.05 171.03-19.7 170.38-21.35 168.91-22.35 167.44-23.35 165.03-23.35L165.03-23.35Q162.88-23.35 160.96-22.35 159.03-21.35 157.84-19.7 156.63-18.05 156.63-16.05L156.63-16.05 156.63-1.5Q156.63-0.9 156.19-0.45 155.74 0 155.13 0L155.13 0Q154.44 0 154.03-0.45 153.63-0.9 153.63-1.5L153.63-1.5 153.63-23.9Q153.63-24.5 154.06-24.95 154.49-25.4 155.13-25.4L155.13-25.4Q155.78-25.4 156.21-24.95 156.63-24.5 156.63-23.9L156.63-23.9 156.63-19.7 155.49-17.9Q155.59-19.5 156.51-20.98 157.44-22.45 158.88-23.63 160.34-24.8 162.11-25.48 163.88-26.15 165.69-26.15ZM208.33-26.15L208.33-26.15Q211.73-26.15 214.36-24.45 216.98-22.75 218.53-19.78 220.08-16.8 220.08-12.9L220.08-12.9Q220.08-9.1 218.53-6.05 216.98-3 214.33-1.25 211.68 0.5 208.38 0.5L208.38 0.5Q206.63 0.5 205.06-0.05 203.48-0.6 202.18-1.53 200.88-2.45 199.88-3.7 198.88-4.95 198.28-6.4L198.28-6.4 199.18-7.05 199.18-1.4Q199.18-0.75 198.76-0.33 198.33 0.1 197.68 0.1L197.68 0.1Q197.03 0.1 196.61-0.33 196.18-0.75 196.18-1.4L196.18-1.4 196.18-35.45Q196.18-36.1 196.58-36.52 196.98-36.95 197.68-36.95L197.68-36.95Q198.33-36.95 198.76-36.52 199.18-36.1 199.18-35.45L199.18-35.45 199.18-18.7 198.48-19.1Q198.98-20.65 199.96-21.93 200.93-23.2 202.23-24.15 203.53-25.1 205.08-25.63 206.63-26.15 208.33-26.15ZM208.08-23.35L208.08-23.35Q205.38-23.35 203.33-22 201.28-20.65 200.11-18.3 198.93-15.95 198.93-12.9L198.93-12.9Q198.93-9.9 200.11-7.48 201.28-5.05 203.33-3.68 205.38-2.3 208.08-2.3L208.08-2.3Q210.73-2.3 212.76-3.7 214.78-5.1 215.98-7.53 217.18-9.95 217.18-12.9L217.18-12.9Q217.18-15.95 215.98-18.3 214.78-20.65 212.76-22 210.73-23.35 208.08-23.35ZM227.78 0L227.78 0Q227.08 0 226.68-0.45 226.28-0.9 226.28-1.5L226.28-1.5 226.28-23.9Q226.28-24.5 226.7-24.95 227.13-25.4 227.78-25.4L227.78-25.4Q228.43-25.4 228.85-24.95 229.28-24.5 229.28-23.9L229.28-23.9 229.28-16.4 228.53-16.25Q228.68-18 229.4-19.73 230.13-21.45 231.38-22.9 232.63-24.35 234.35-25.25 236.08-26.15 238.23-26.15L238.23-26.15Q239.13-26.15 239.98-25.78 240.83-25.4 240.83-24.55L240.83-24.55Q240.83-23.8 240.43-23.4 240.03-23 239.48-23L239.48-23Q239.03-23 238.5-23.25 237.98-23.5 237.13-23.5L237.13-23.5Q235.73-23.5 234.33-22.68 232.93-21.85 231.78-20.45 230.63-19.05 229.95-17.32 229.28-15.6 229.28-13.85L229.28-13.85 229.28-1.5Q229.28-0.9 228.83-0.45 228.38 0 227.78 0ZM248.43-24.5L248.43-1.5Q248.43-0.9 247.98-0.45 247.53 0 246.93 0L246.93 0Q246.28 0 245.85-0.45 245.43-0.9 245.43-1.5L245.43-1.5 245.43-24.5Q245.43-25.1 245.85-25.55 246.28-26 246.93-26L246.93-26Q247.58-26 248-25.55 248.43-25.1 248.43-24.5L248.43-24.5ZM246.93-29.35L246.93-29.35Q245.88-29.35 245.35-29.83 244.83-30.3 244.83-31.2L244.83-31.2 244.83-31.7Q244.83-32.6 245.4-33.08 245.98-33.55 246.98-33.55L246.98-33.55Q247.93-33.55 248.45-33.08 248.98-32.6 248.98-31.7L248.98-31.7 248.98-31.2Q248.98-30.3 248.45-29.83 247.93-29.35 246.93-29.35ZM268.27-26.15L268.27-26.15Q271.57-26.15 273.55-24.83 275.52-23.5 276.4-21.23 277.27-18.95 277.27-16.2L277.27-16.2 277.27-1.5Q277.27-0.9 276.82-0.45 276.37 0 275.77 0L275.77 0Q275.07 0 274.67-0.45 274.27-0.9 274.27-1.5L274.27-1.5 274.27-16.05Q274.27-18.05 273.62-19.7 272.97-21.35 271.5-22.35 270.02-23.35 267.62-23.35L267.62-23.35Q265.47-23.35 263.55-22.35 261.62-21.35 260.42-19.7 259.22-18.05 259.22-16.05L259.22-16.05 259.22-1.5Q259.22-0.9 258.77-0.45 258.32 0 257.72 0L257.72 0Q257.02 0 256.62-0.45 256.22-0.9 256.22-1.5L256.22-1.5 256.22-23.9Q256.22-24.5 256.65-24.95 257.07-25.4 257.72-25.4L257.72-25.4Q258.37-25.4 258.8-24.95 259.22-24.5 259.22-23.9L259.22-23.9 259.22-19.7 258.07-17.9Q258.17-19.5 259.1-20.98 260.02-22.45 261.47-23.63 262.92-24.8 264.7-25.48 266.47-26.15 268.27-26.15ZM295.57-26.15L295.57-26.15Q297.77-26.15 299.67-25.38 301.57-24.6 303-23.38 304.42-22.15 305.22-20.78 306.02-19.4 306.02-18.15L306.02-18.15 305.22-19.35 305.22-24Q305.22-24.65 305.65-25.1 306.07-25.55 306.72-25.55L306.72-25.55Q307.37-25.55 307.8-25.1 308.22-24.65 308.22-24L308.22-24 308.22-2.35Q308.22 1.65 306.57 4.4 304.92 7.15 302.1 8.58 299.27 10 295.67 10L295.67 10Q293.92 10 292 9.55 290.07 9.1 288.69 8.4 287.32 7.7 287.12 6.95L287.12 6.95Q286.77 6.5 286.8 6.08 286.82 5.65 287.22 5.35L287.22 5.35Q287.67 5 288.25 5.28 288.82 5.55 289.92 6L289.92 6Q290.37 6.15 291.25 6.45 292.12 6.75 293.3 6.98 294.47 7.2 295.72 7.2L295.72 7.2Q300.22 7.2 302.72 4.63 305.22 2.05 305.22-2.15L305.22-2.15 305.22-6.95 305.77-6.8Q305.32-5 304.27-3.65 303.22-2.3 301.82-1.38 300.42-0.45 298.82 0.03 297.22 0.5 295.62 0.5L295.62 0.5Q292.17 0.5 289.4-1.25 286.62-3 285.02-6 283.42-9 283.42-12.85L283.42-12.85Q283.42-16.65 285.02-19.68 286.62-22.7 289.37-24.43 292.12-26.15 295.57-26.15ZM295.87-23.35L295.87-23.35Q293.17-23.35 291-21.98 288.82-20.6 287.6-18.23 286.37-15.85 286.37-12.85L286.37-12.85Q286.37-9.85 287.6-7.45 288.82-5.05 291-3.68 293.17-2.3 295.87-2.3L295.87-2.3Q298.62-2.3 300.77-3.65 302.92-5 304.17-7.38 305.42-9.75 305.42-12.85L305.42-12.85Q305.42-15.95 304.17-18.32 302.92-20.7 300.77-22.03 298.62-23.35 295.87-23.35ZM314.17-4.05L314.17-4.05Q313.77-4.65 313.79-5.23 313.82-5.8 314.42-6.15L314.42-6.15Q314.82-6.5 315.34-6.45 315.87-6.4 316.32-5.95L316.32-5.95Q317.67-4.2 319.59-3.13 321.52-2.05 324.17-2.05L324.17-2.05Q325.57-2.05 326.94-2.53 328.32-3 329.22-3.98 330.12-4.95 330.12-6.45L330.12-6.45Q330.12-8 329.22-8.95 328.32-9.9 326.89-10.45 325.47-11 323.87-11.4L323.87-11.4Q322.17-11.85 320.57-12.43 318.97-13 317.74-13.88 316.52-14.75 315.77-16 315.02-17.25 315.02-19.05L315.02-19.05Q315.02-21.15 316.17-22.75 317.32-24.35 319.29-25.25 321.27-26.15 323.77-26.15L323.77-26.15Q325.02-26.15 326.47-25.83 327.92-25.5 329.32-24.75 330.72-24 331.82-22.7L331.82-22.7Q332.27-22.25 332.27-21.68 332.27-21.1 331.77-20.65L331.77-20.65Q331.37-20.35 330.84-20.35 330.32-20.35 329.97-20.75L329.97-20.75Q328.77-22.1 327.12-22.8 325.47-23.5 323.57-23.5L323.57-23.5Q322.12-23.5 320.84-23.03 319.57-22.55 318.72-21.6 317.87-20.65 317.87-19.1L317.87-19.1Q317.97-17.65 318.89-16.75 319.82-15.85 321.34-15.25 322.87-14.65 324.77-14.15L324.77-14.15Q326.37-13.75 327.84-13.2 329.32-12.65 330.44-11.83 331.57-11 332.24-9.75 332.92-8.5 332.92-6.6L332.92-6.6Q332.92-4.4 331.69-2.8 330.47-1.2 328.42-0.35 326.37 0.5 323.87 0.5L323.87 0.5Q321.17 0.5 318.64-0.55 316.12-1.6 314.17-4.05ZM379.01-32.4L379.01-32.4Q379.61-32 379.71-31.38 379.81-30.75 379.41-30.15L379.41-30.15Q379.06-29.7 378.51-29.65 377.96-29.6 377.46-29.85L377.46-29.85Q375.56-31.1 373.39-31.8 371.21-32.5 368.71-32.5L368.71-32.5Q365.66-32.5 363.04-31.43 360.41-30.35 358.46-28.33 356.51-26.3 355.44-23.55 354.36-20.8 354.36-17.5L354.36-17.5Q354.36-14.1 355.46-11.33 356.56-8.55 358.54-6.55 360.51-4.55 363.11-3.5 365.71-2.45 368.71-2.45L368.71-2.45Q371.16-2.45 373.34-3.15 375.51-3.85 377.41-5.05L377.41-5.05Q377.91-5.35 378.49-5.28 379.06-5.2 379.41-4.7L379.41-4.7Q379.86-4.15 379.74-3.53 379.61-2.9 379.06-2.55L379.06-2.55Q377.81-1.75 376.11-1.05 374.41-0.35 372.51 0.08 370.61 0.5 368.71 0.5L368.71 0.5Q365.11 0.5 361.96-0.8 358.81-2.1 356.36-4.48 353.91-6.85 352.54-10.15 351.16-13.45 351.16-17.5L351.16-17.5Q351.16-21.4 352.51-24.68 353.86-27.95 356.26-30.35 358.66-32.75 361.86-34.1 365.06-35.45 368.71-35.45L368.71-35.45Q371.56-35.45 374.21-34.65 376.86-33.85 379.01-32.4ZM408.96-12.8L408.96-12.8Q408.96-9 407.28-5.98 405.61-2.95 402.76-1.23 399.91 0.5 396.31 0.5L396.31 0.5Q392.76 0.5 389.88-1.23 387.01-2.95 385.33-5.98 383.66-9 383.66-12.8L383.66-12.8Q383.66-16.65 385.33-19.65 387.01-22.65 389.88-24.4 392.76-26.15 396.31-26.15L396.31-26.15Q399.91-26.15 402.76-24.4 405.61-22.65 407.28-19.65 408.96-16.65 408.96-12.8ZM405.96-12.8L405.96-12.8Q405.96-15.85 404.71-18.23 403.46-20.6 401.28-21.98 399.11-23.35 396.31-23.35L396.31-23.35Q393.56-23.35 391.38-21.98 389.21-20.6 387.93-18.23 386.66-15.85 386.66-12.8L386.66-12.8Q386.66-9.75 387.93-7.4 389.21-5.05 391.38-3.68 393.56-2.3 396.31-2.3L396.31-2.3Q399.11-2.3 401.28-3.68 403.46-5.05 404.71-7.4 405.96-9.75 405.96-12.8ZM427.16-26.15L427.16-26.15Q430.46-26.15 432.43-24.83 434.41-23.5 435.28-21.23 436.16-18.95 436.16-16.2L436.16-16.2 436.16-1.5Q436.16-0.9 435.71-0.45 435.26 0 434.66 0L434.66 0Q433.96 0 433.56-0.45 433.16-0.9 433.16-1.5L433.16-1.5 433.16-16.05Q433.16-18.05 432.51-19.7 431.86-21.35 430.38-22.35 428.91-23.35 426.51-23.35L426.51-23.35Q424.36-23.35 422.43-22.35 420.51-21.35 419.31-19.7 418.11-18.05 418.11-16.05L418.11-16.05 418.11-1.5Q418.11-0.9 417.66-0.45 417.21 0 416.61 0L416.61 0Q415.91 0 415.51-0.45 415.11-0.9 415.11-1.5L415.11-1.5 415.11-23.9Q415.11-24.5 415.53-24.95 415.96-25.4 416.61-25.4L416.61-25.4Q417.26-25.4 417.68-24.95 418.11-24.5 418.11-23.9L418.11-23.9 418.11-19.7 416.96-17.9Q417.06-19.5 417.98-20.98 418.91-22.45 420.36-23.63 421.81-24.8 423.58-25.48 425.36-26.15 427.16-26.15ZM453.25-36.8L453.25-36.8Q454-36.8 454.88-36.65 455.75-36.5 456.4-36.13 457.05-35.75 457.05-35L457.05-35Q457.05-34.45 456.65-34.02 456.25-33.6 455.75-33.6L455.75-33.6Q455.25-33.6 454.5-33.88 453.75-34.15 452.9-34.15L452.9-34.15Q451.85-34.15 451.1-33.68 450.35-33.2 449.95-32.33 449.55-31.45 449.55-30.2L449.55-30.2 449.55-1.5Q449.55-0.9 449.13-0.45 448.7 0 448.05 0L448.05 0Q447.4 0 446.98-0.45 446.55-0.9 446.55-1.5L446.55-1.5 446.55-30.2Q446.55-33.4 448.43-35.1 450.3-36.8 453.25-36.8ZM442.9-25.05L455.15-25.05Q455.75-25.05 456.15-24.65 456.55-24.25 456.55-23.65L456.55-23.65Q456.55-23.05 456.15-22.65 455.75-22.25 455.15-22.25L455.15-22.25 442.9-22.25Q442.35-22.25 441.93-22.68 441.5-23.1 441.5-23.65L441.5-23.65Q441.5-24.3 441.93-24.68 442.35-25.05 442.9-25.05L442.9-25.05ZM464.55-24.5L464.55-1.5Q464.55-0.9 464.1-0.45 463.65 0 463.05 0L463.05 0Q462.4 0 461.98-0.45 461.55-0.9 461.55-1.5L461.55-1.5 461.55-24.5Q461.55-25.1 461.98-25.55 462.4-26 463.05-26L463.05-26Q463.7-26 464.13-25.55 464.55-25.1 464.55-24.5L464.55-24.5ZM463.05-29.35L463.05-29.35Q462-29.35 461.48-29.83 460.95-30.3 460.95-31.2L460.95-31.2 460.95-31.7Q460.95-32.6 461.53-33.08 462.1-33.55 463.1-33.55L463.1-33.55Q464.05-33.55 464.58-33.08 465.1-32.6 465.1-31.7L465.1-31.7 465.1-31.2Q465.1-30.3 464.58-29.83 464.05-29.35 463.05-29.35ZM493.1-37L493.1-37Q493.75-37 494.17-36.58 494.6-36.15 494.6-35.5L494.6-35.5 494.6-1.5Q494.6-0.9 494.15-0.45 493.7 0 493.1 0L493.1 0Q492.4 0 492-0.45 491.6-0.9 491.6-1.5L491.6-1.5 491.6-7.45 492.45-8.15Q492.45-6.75 491.7-5.23 490.95-3.7 489.57-2.4 488.2-1.1 486.37-0.3 484.55 0.5 482.4 0.5L482.4 0.5Q479.1 0.5 476.42-1.25 473.75-3 472.2-6 470.65-9 470.65-12.85L470.65-12.85Q470.65-16.65 472.2-19.68 473.75-22.7 476.4-24.43 479.05-26.15 482.35-26.15L482.35-26.15Q484.45-26.15 486.3-25.4 488.15-24.65 489.57-23.35 491-22.05 491.82-20.38 492.65-18.7 492.65-16.9L492.65-16.9 491.6-17.65 491.6-35.5Q491.6-36.1 492-36.55 492.4-37 493.1-37ZM482.7-2.3L482.7-2.3Q485.35-2.3 487.4-3.68 489.45-5.05 490.62-7.43 491.8-9.8 491.8-12.85L491.8-12.85Q491.8-15.85 490.62-18.23 489.45-20.6 487.4-21.98 485.35-23.35 482.7-23.35L482.7-23.35Q480.1-23.35 478.02-21.98 475.95-20.6 474.77-18.23 473.6-15.85 473.6-12.85L473.6-12.85Q473.6-9.85 474.77-7.45 475.95-5.05 478.02-3.68 480.1-2.3 482.7-2.3ZM513.8 0.5L513.8 0.5Q509.95 0.5 507-1.15 504.05-2.8 502.4-5.75 500.75-8.7 500.75-12.65L500.75-12.65Q500.75-16.9 502.42-19.9 504.1-22.9 506.77-24.53 509.45-26.15 512.45-26.15L512.45-26.15Q514.65-26.15 516.72-25.38 518.8-24.6 520.4-23.08 522-21.55 523-19.35 524-17.15 524.05-14.25L524.05-14.25Q524.05-13.65 523.6-13.23 523.15-12.8 522.55-12.8L522.55-12.8 502.5-12.8 501.9-15.5 521.6-15.5 520.95-14.9 520.95-15.9Q520.7-18.25 519.4-19.9 518.1-21.55 516.27-22.4 514.45-23.25 512.45-23.25L512.45-23.25Q510.95-23.25 509.37-22.65 507.8-22.05 506.52-20.78 505.25-19.5 504.45-17.53 503.65-15.55 503.65-12.85L503.65-12.85Q503.65-9.9 504.85-7.5 506.05-5.1 508.3-3.7 510.55-2.3 513.75-2.3L513.75-2.3Q515.45-2.3 516.85-2.8 518.25-3.3 519.32-4.13 520.4-4.95 521.1-5.85L521.1-5.85Q521.65-6.3 522.15-6.3L522.15-6.3Q522.7-6.3 523.07-5.9 523.45-5.5 523.45-5L523.45-5Q523.45-4.4 522.95-3.95L522.95-3.95Q521.45-2.15 519.05-0.83 516.65 0.5 513.8 0.5ZM542.29-26.15L542.29-26.15Q545.59-26.15 547.57-24.83 549.54-23.5 550.42-21.23 551.29-18.95 551.29-16.2L551.29-16.2 551.29-1.5Q551.29-0.9 550.84-0.45 550.39 0 549.79 0L549.79 0Q549.09 0 548.69-0.45 548.29-0.9 548.29-1.5L548.29-1.5 548.29-16.05Q548.29-18.05 547.64-19.7 546.99-21.35 545.52-22.35 544.04-23.35 541.64-23.35L541.64-23.35Q539.49-23.35 537.57-22.35 535.64-21.35 534.44-19.7 533.24-18.05 533.24-16.05L533.24-16.05 533.24-1.5Q533.24-0.9 532.79-0.45 532.34 0 531.74 0L531.74 0Q531.04 0 530.64-0.45 530.24-0.9 530.24-1.5L530.24-1.5 530.24-23.9Q530.24-24.5 530.67-24.95 531.09-25.4 531.74-25.4L531.74-25.4Q532.39-25.4 532.82-24.95 533.24-24.5 533.24-23.9L533.24-23.9 533.24-19.7 532.09-17.9Q532.19-19.5 533.12-20.98 534.04-22.45 535.49-23.63 536.94-24.8 538.72-25.48 540.49-26.15 542.29-26.15ZM570.19-26.15L570.19-26.15Q572.59-26.15 574.59-25.63 576.59-25.1 577.82-24.2 579.04-23.3 579.04-22.25L579.04-22.25Q579.04-21.75 578.67-21.28 578.29-20.8 577.74-20.8L577.74-20.8Q577.09-20.8 576.72-21.1 576.34-21.4 575.99-21.8 575.64-22.2 574.94-22.55L574.94-22.55Q574.29-22.85 573.07-23.1 571.84-23.35 570.34-23.35L570.34-23.35Q567.54-23.35 565.29-21.95 563.04-20.55 561.74-18.18 560.44-15.8 560.44-12.85L560.44-12.85Q560.44-9.85 561.67-7.45 562.89-5.05 565.12-3.68 567.34-2.3 570.24-2.3L570.24-2.3Q572.24-2.3 573.37-2.65 574.49-3 575.24-3.45L575.24-3.45Q576.24-4 576.67-4.53 577.09-5.05 577.79-5.05L577.79-5.05Q578.39-5.05 578.74-4.67 579.09-4.3 579.09-3.7L579.09-3.7Q579.09-2.9 577.92-1.93 576.74-0.95 574.69-0.23 572.64 0.5 569.94 0.5L569.94 0.5Q566.24 0.5 563.42-1.25 560.59-3 559.02-6.03 557.44-9.05 557.44-12.85L557.44-12.85Q557.44-16.5 559.04-19.5 560.64-22.5 563.49-24.33 566.34-26.15 570.19-26.15ZM596.19 0.5L596.19 0.5Q592.34 0.5 589.39-1.15 586.44-2.8 584.79-5.75 583.14-8.7 583.14-12.65L583.14-12.65Q583.14-16.9 584.81-19.9 586.49-22.9 589.16-24.53 591.84-26.15 594.84-26.15L594.84-26.15Q597.04-26.15 599.11-25.38 601.19-24.6 602.79-23.08 604.39-21.55 605.39-19.35 606.39-17.15 606.44-14.25L606.44-14.25Q606.44-13.65 605.99-13.23 605.54-12.8 604.94-12.8L604.94-12.8 584.89-12.8 584.29-15.5 603.99-15.5 603.34-14.9 603.34-15.9Q603.09-18.25 601.79-19.9 600.49-21.55 598.66-22.4 596.84-23.25 594.84-23.25L594.84-23.25Q593.34-23.25 591.76-22.65 590.19-22.05 588.91-20.78 587.64-19.5 586.84-17.53 586.04-15.55 586.04-12.85L586.04-12.85Q586.04-9.9 587.24-7.5 588.44-5.1 590.69-3.7 592.94-2.3 596.14-2.3L596.14-2.3Q597.84-2.3 599.24-2.8 600.64-3.3 601.71-4.13 602.79-4.95 603.49-5.85L603.49-5.85Q604.04-6.3 604.54-6.3L604.54-6.3Q605.09-6.3 605.46-5.9 605.84-5.5 605.84-5L605.84-5Q605.84-4.4 605.34-3.95L605.34-3.95Q603.84-2.15 601.44-0.83 599.04 0.5 596.19 0.5Z" opacity="1" transform="matrix(1,0,0,1,0,0)" fill="#000000" class="slogan-text-1" data-fill-palette-color="secondary" id="text-1"></path></svg></g></svg></g></svg></g></svg></g><g><svg viewBox="0 0 227.53890909506987 227.53890909506987" height="227.53890909506987" width="227.53890909506987"><g><svg></svg></g><g id="icon-0"><svg viewBox="0 0 227.53890909506987 227.53890909506987" height="227.53890909506987" width="227.53890909506987"><g><path d="M0 113.769c0-62.833 50.936-113.769 113.769-113.769 62.833 0 113.769 50.936 113.77 113.769 0 62.833-50.936 113.769-113.77 113.77-62.833 0-113.769-50.936-113.769-113.77zM113.769 221.283c59.378 0 107.513-48.135 107.514-107.514 0-59.378-48.135-107.513-107.514-107.513-59.378 0-107.513 48.135-107.513 107.513 0 59.378 48.135 107.513 107.513 107.514z" data-fill-palette-color="tertiary" fill="#000000" stroke="transparent"></path></g><g transform="matrix(1,0,0,1,47.740910490411835,55.06792136443098)"><svg viewBox="0 0 132.0570881142462 117.40306636620791" height="117.40306636620791" width="132.0570881142462"><g><svg xmlns="http://www.w3.org/2000/svg" data-name="Layer 1" viewBox="19.09 22.52 61.81999999999999 54.96000000000001" x="0" y="0" height="117.40306636620791" width="132.0570881142462" class="icon-dxe-0" data-fill-palette-color="accent" id="dxe-0"><path d="M65.68 66.91V65.72A5 5 0 0 0 65.3 64.27L61.81 67.19H65.64C65.66 67.1 65.67 67 65.68 66.91" fill="#000000" data-fill-palette-color="accent"></path><path d="M56.38 71.73H60.31A5.41 5.41 0 0 0 65.15 68.73H60Z" fill="#000000" data-fill-palette-color="accent"></path><path d="M67.22 77.48H73.68L76.09 56.77C76.09 52.89 71.46 50.4 70 49.7 69.42 50.24 68.19 51.36 66.49 52.78A96 96 0 0 1 57.87 59.25C56.68 60.04 55.5 60.78 54.38 61.43 48.98 64.57 44.31 66.14 40.53 66.13L36.53 71.35 35.3 73 32 77.34 32.07 77.48H42.64A12.3 12.3 0 0 0 50.49 74.64L57.49 68.78 59.17 67.37 65 62.48 65.46 62.09 65.91 61.72A0.77 0.77 0 0 1 67.18 62.31V65.62A1 1 0 0 1 67.18 65.74 6.7 6.7 0 0 1 67.18 67.04Z" fill="#000000" data-fill-palette-color="accent"></path><path d="M39.52 64.92A0.89 0.89 0 0 1 40.19 64.58C43.44 64.69 47.45 63.45 52.19 60.9L41.63 57A0.77 0.77 0 0 1 42.17 55.55L53.9 59.91C54.44 59.59 54.99 59.26 55.55 58.91L55.74 58.79 39.54 52.6A2.9 2.9 0 0 0 38.54 52.4H38.41A3.05 3.05 0 0 0 36.09 53.55 8.3 8.3 0 0 1 34.44 55 8.07 8.07 0 0 1 23.19 52.8 0.93 0.93 0 0 0 21.8 52.64 0.9 0.9 0 0 0 21.52 53.29V67.19H37.77ZM26.18 65.12A0.77 0.77 0 1 1 26.18 63.58H37.76A0.77 0.77 0 0 1 37.76 65.12Z" fill="#000000" data-fill-palette-color="accent"></path><path d="M25.28 71.73H34.28L35.4 70.27 36.57 68.74H21.57A3.77 3.77 0 0 0 25.28 71.73" fill="#000000" data-fill-palette-color="accent"></path><path d="M65.71 22.52H56.17A6.46 6.46 0 0 1 43.82 22.52H34.29L19.09 35.38 26.81 44.51 33.51 38.84A0.77 0.77 0 0 1 34.78 39.43V52.66L34.88 52.55A4.57 4.57 0 0 1 38.38 50.85H38.51A4.4 4.4 0 0 1 40.1 51.15L57.34 57.74 58.51 56.94 59.17 56.49C59.77 56.07 60.37 55.63 60.97 55.18L61.21 55Q62.21 54.23 63.28 53.4L63.92 52.88 65.22 51.82V39.43A0.77 0.77 0 0 1 66.49 38.84L73.19 44.51 80.91 35.38Z" fill="#000000" data-fill-palette-color="accent"></path></svg></g></svg></g></svg></g></svg></g></svg></g><defs></defs></svg><rect width="395.52" height="137.22805597201068" fill="none" stroke="none" visibility="hidden"></rect></g></svg></g></svg>